%TF.GenerationSoftware,KiCad,Pcbnew,9.0.7*%
%TF.CreationDate,2026-08-01T22:30:49+01:00*%
%TF.ProjectId,amiga-generic-dsub,616d6967-612d-4676-956e-657269632d64,2.3*%
%TF.SameCoordinates,Original*%
%TF.FileFunction,Copper,L1,Top*%
%TF.FilePolarity,Positive*%
%FSLAX46Y46*%
G04 Gerber Fmt 4.6, Leading zero omitted, Abs format (unit mm)*
G04 Created by KiCad (PCBNEW 9.0.7) date 2026-08-01 22:30:49*
%MOMM*%
%LPD*%
G01*
G04 APERTURE LIST*
G04 Aperture macros list*
%AMRoundRect*
0 Rectangle with rounded corners*
0 $1 Rounding radius*
0 $2 $3 $4 $5 $6 $7 $8 $9 X,Y pos of 4 corners*
0 Add a 4 corners polygon primitive as box body*
4,1,4,$2,$3,$4,$5,$6,$7,$8,$9,$2,$3,0*
0 Add four circle primitives for the rounded corners*
1,1,$1+$1,$2,$3*
1,1,$1+$1,$4,$5*
1,1,$1+$1,$6,$7*
1,1,$1+$1,$8,$9*
0 Add four rect primitives between the rounded corners*
20,1,$1+$1,$2,$3,$4,$5,0*
20,1,$1+$1,$4,$5,$6,$7,0*
20,1,$1+$1,$6,$7,$8,$9,0*
20,1,$1+$1,$8,$9,$2,$3,0*%
G04 Aperture macros list end*
%TA.AperFunction,ComponentPad*%
%ADD10C,4.000000*%
%TD*%
%TA.AperFunction,ComponentPad*%
%ADD11R,1.600000X1.600000*%
%TD*%
%TA.AperFunction,ComponentPad*%
%ADD12C,1.600000*%
%TD*%
%TA.AperFunction,WasherPad*%
%ADD13C,2.499360*%
%TD*%
%TA.AperFunction,ComponentPad*%
%ADD14C,2.499360*%
%TD*%
%TA.AperFunction,ComponentPad*%
%ADD15C,2.000000*%
%TD*%
%TA.AperFunction,ComponentPad*%
%ADD16RoundRect,0.249999X0.850001X0.850001X-0.850001X0.850001X-0.850001X-0.850001X0.850001X-0.850001X0*%
%TD*%
%TA.AperFunction,ComponentPad*%
%ADD17C,2.200000*%
%TD*%
%TA.AperFunction,ComponentPad*%
%ADD18O,1.700000X1.700000*%
%TD*%
%TA.AperFunction,SMDPad,CuDef*%
%ADD19R,3.500000X1.700000*%
%TD*%
%TA.AperFunction,ComponentPad*%
%ADD20R,1.700000X1.700000*%
%TD*%
%TA.AperFunction,SMDPad,CuDef*%
%ADD21R,1.700000X3.500000*%
%TD*%
%TA.AperFunction,ComponentPad*%
%ADD22RoundRect,0.250000X0.550000X0.550000X-0.550000X0.550000X-0.550000X-0.550000X0.550000X-0.550000X0*%
%TD*%
%TA.AperFunction,ComponentPad*%
%ADD23C,1.700000*%
%TD*%
%TA.AperFunction,ComponentPad*%
%ADD24C,1.400000*%
%TD*%
%TA.AperFunction,ComponentPad*%
%ADD25R,1.800000X1.800000*%
%TD*%
%TA.AperFunction,ComponentPad*%
%ADD26C,1.800000*%
%TD*%
%TA.AperFunction,ComponentPad*%
%ADD27RoundRect,0.250000X0.550000X-0.550000X0.550000X0.550000X-0.550000X0.550000X-0.550000X-0.550000X0*%
%TD*%
%TA.AperFunction,Conductor*%
%ADD28C,0.250000*%
%TD*%
G04 APERTURE END LIST*
D10*
%TO.P,Controller-2,0,PAD*%
%TO.N,unconnected-(Controller-2-PAD-Pad0)*%
X156910331Y-55690000D03*
X156910331Y-80690000D03*
D11*
%TO.P,Controller-2,1,1*%
%TO.N,Net-(llc4-Pin_b1)*%
X158330331Y-62650000D03*
D12*
%TO.P,Controller-2,2,2*%
%TO.N,Net-(llc4-Pin_b2)*%
X158330331Y-65420000D03*
%TO.P,Controller-2,3,3*%
%TO.N,Net-(llc4-Pin_b5)*%
X158330331Y-68190000D03*
%TO.P,Controller-2,4,4*%
%TO.N,Net-(llc4-Pin_b6)*%
X158330331Y-70960000D03*
%TO.P,Controller-2,5,5*%
%TO.N,Net-(llc3-Pin_b5)*%
X158330331Y-73730000D03*
%TO.P,Controller-2,6,6*%
%TO.N,Net-(llc3-Pin_b1)*%
X155490331Y-64035000D03*
%TO.P,Controller-2,7,7*%
%TO.N,Net-(D2-A)*%
X155490331Y-66805000D03*
%TO.P,Controller-2,8,8*%
%TO.N,Net-(llc3-Pin_b4)*%
X155490331Y-69575000D03*
%TO.P,Controller-2,9,9*%
%TO.N,Net-(llc3-Pin_b2)*%
X155490331Y-72345000D03*
%TD*%
D13*
%TO.P,J1,*%
%TO.N,*%
X144002300Y-35998740D03*
X144002300Y-46001260D03*
D14*
%TO.P,J1,1*%
%TO.N,Net-(llc1-Pin_b6)*%
X153997200Y-48498080D03*
%TO.P,J1,2*%
%TO.N,Net-(llc1-Pin_b5)*%
X153999740Y-41000000D03*
%TO.P,J1,3*%
%TO.N,unconnected-(J1-Pad3)*%
X153997200Y-33501920D03*
%TO.P,J1,4*%
%TO.N,Net-(llc1-Pin_b4)*%
X156499100Y-45996180D03*
%TO.P,J1,5*%
%TO.N,Net-(D3-A)*%
X156499100Y-36003820D03*
%TD*%
D15*
%TO.P,Reset1,1,1*%
%TO.N,Net-(U1-RUN)*%
X206150000Y-39800000D03*
X206150000Y-33300000D03*
%TO.P,Reset1,2,2*%
%TO.N,Net-(D1-K)*%
X210650000Y-39800000D03*
X210650000Y-33300000D03*
%TD*%
D16*
%TO.P,D2,1,K*%
%TO.N,Net-(D2-K)*%
X186880000Y-61000000D03*
D17*
%TO.P,D2,2,A*%
%TO.N,Net-(D2-A)*%
X176720000Y-61000000D03*
%TD*%
D18*
%TO.P,U1,1,GPIO0*%
%TO.N,Net-(Debug1-Pin_1)*%
X203200000Y-116920000D03*
D19*
X204100000Y-116920000D03*
D18*
%TO.P,U1,2,GPIO1*%
%TO.N,Net-(Debug1-Pin_2)*%
X203200000Y-114380000D03*
D19*
X204100000Y-114380000D03*
D20*
%TO.P,U1,3,GND*%
%TO.N,Net-(Debug1-Pin_3)*%
X203200000Y-111840000D03*
D19*
X204100000Y-111840000D03*
D18*
%TO.P,U1,4,GPIO2*%
%TO.N,Net-(U1-GPIO2)*%
X203200000Y-109300000D03*
D19*
X204100000Y-109300000D03*
D18*
%TO.P,U1,5,GPIO3*%
%TO.N,Net-(U1-GPIO3)*%
X203200000Y-106760000D03*
D19*
X204100000Y-106760000D03*
D18*
%TO.P,U1,6,GPIO4*%
%TO.N,Net-(U1-GPIO4)*%
X203200000Y-104220000D03*
D19*
X204100000Y-104220000D03*
D18*
%TO.P,U1,7,GPIO5*%
%TO.N,Net-(U1-GPIO5)*%
X203200000Y-101680000D03*
D19*
X204100000Y-101680000D03*
D20*
%TO.P,U1,8,GND*%
%TO.N,Net-(D1-K)*%
X203200000Y-99140000D03*
D19*
X204100000Y-99140000D03*
D18*
%TO.P,U1,9,GPIO6*%
%TO.N,Net-(U1-GPIO6)*%
X203200000Y-96600000D03*
D19*
X204100000Y-96600000D03*
D18*
%TO.P,U1,10,GPIO7*%
%TO.N,unconnected-(U1-GPIO7-Pad10)*%
X203200000Y-94060000D03*
D19*
X204100000Y-94060000D03*
D18*
%TO.P,U1,11,GPIO8*%
%TO.N,Net-(Display1-Pin_4)*%
X203200000Y-91520000D03*
D19*
X204100000Y-91520000D03*
D18*
%TO.P,U1,12,GPIO9*%
%TO.N,Net-(Display1-Pin_3)*%
X203200000Y-88980000D03*
D19*
X204100000Y-88980000D03*
D20*
%TO.P,U1,13,GND*%
%TO.N,unconnected-(U1-GND-Pad13)*%
X203200000Y-86440000D03*
D19*
X204100000Y-86440000D03*
D18*
%TO.P,U1,14,GPIO10*%
%TO.N,Net-(U1-GPIO10)*%
X203200000Y-83900000D03*
D19*
X204100000Y-83900000D03*
D18*
%TO.P,U1,15,GPIO11*%
%TO.N,Net-(U1-GPIO11)*%
X203200000Y-81360000D03*
D19*
X204100000Y-81360000D03*
D18*
%TO.P,U1,16,GPIO12*%
%TO.N,Net-(U1-GPIO12)*%
X203200000Y-78820000D03*
D19*
X204100000Y-78820000D03*
D18*
%TO.P,U1,17,GPIO13*%
%TO.N,Net-(U1-GPIO13)*%
X203200000Y-76280000D03*
D19*
X204100000Y-76280000D03*
D20*
%TO.P,U1,18,GND*%
%TO.N,Net-(llc5-Pin_a4)*%
X203200000Y-73740000D03*
D19*
X204100000Y-73740000D03*
D18*
%TO.P,U1,19,GPIO14*%
%TO.N,Net-(U1-GPIO14)*%
X203200000Y-71200000D03*
D19*
X204100000Y-71200000D03*
D18*
%TO.P,U1,20,GPIO15*%
%TO.N,unconnected-(U1-GPIO15-Pad20)*%
X203200000Y-68660000D03*
D19*
X204100000Y-68660000D03*
D18*
%TO.P,U1,21,GPIO16*%
%TO.N,Net-(Display1-Pin_6)*%
X185420000Y-68660000D03*
D19*
X184520000Y-68660000D03*
D18*
%TO.P,U1,22,GPIO17*%
%TO.N,Net-(Display1-Pin_7)*%
X185420000Y-71200000D03*
D19*
X184520000Y-71200000D03*
D20*
%TO.P,U1,23,GND*%
%TO.N,unconnected-(U1-GND-Pad23)*%
X185420000Y-73740000D03*
D19*
X184520000Y-73740000D03*
D18*
%TO.P,U1,24,GPIO18*%
%TO.N,Net-(Display1-Pin_8)*%
X185420000Y-76280000D03*
D19*
X184520000Y-76280000D03*
D18*
%TO.P,U1,25,GPIO19*%
%TO.N,Net-(U1-GPIO19)*%
X185420000Y-78820000D03*
D19*
X184520000Y-78820000D03*
D18*
%TO.P,U1,26,GPIO20*%
%TO.N,Net-(U1-GPIO20)*%
X185420000Y-81360000D03*
D19*
X184520000Y-81360000D03*
D18*
%TO.P,U1,27,GPIO21*%
%TO.N,Net-(U1-GPIO21)*%
X185420000Y-83900000D03*
D19*
X184520000Y-83900000D03*
D20*
%TO.P,U1,28,GND*%
%TO.N,Net-(llc1-Pin_a4)*%
X185420000Y-86440000D03*
D19*
X184520000Y-86440000D03*
D18*
%TO.P,U1,29,GPIO22*%
%TO.N,Net-(U1-GPIO22)*%
X185420000Y-88980000D03*
D19*
X184520000Y-88980000D03*
D18*
%TO.P,U1,30,RUN*%
%TO.N,Net-(U1-RUN)*%
X185420000Y-91520000D03*
D19*
X184520000Y-91520000D03*
D18*
%TO.P,U1,31,GPIO26_ADC0*%
%TO.N,Net-(U1-GPIO26_ADC0)*%
X185420000Y-94060000D03*
D19*
X184520000Y-94060000D03*
D18*
%TO.P,U1,32,GPIO27_ADC1*%
%TO.N,Net-(U1-GPIO27_ADC1)*%
X185420000Y-96600000D03*
D19*
X184520000Y-96600000D03*
D20*
%TO.P,U1,33,AGND*%
%TO.N,unconnected-(U1-AGND-Pad33)*%
X185420000Y-99140000D03*
D19*
X184520000Y-99140000D03*
D18*
%TO.P,U1,34,GPIO28_ADC2*%
%TO.N,Net-(U1-GPIO28_ADC2)*%
X185420000Y-101680000D03*
D19*
X184520000Y-101680000D03*
D18*
%TO.P,U1,35,ADC_VREF*%
%TO.N,unconnected-(U1-ADC_VREF-Pad35)*%
X185420000Y-104220000D03*
D19*
X184520000Y-104220000D03*
D18*
%TO.P,U1,36,3V3*%
%TO.N,Net-(Display1-Pin_2)*%
X185420000Y-106760000D03*
D19*
X184520000Y-106760000D03*
D18*
%TO.P,U1,37,3V3_EN*%
%TO.N,unconnected-(U1-3V3_EN-Pad37)*%
X185420000Y-109300000D03*
D19*
X184520000Y-109300000D03*
D20*
%TO.P,U1,38,GND*%
%TO.N,Net-(llc3-Pin_b4)*%
X185420000Y-111840000D03*
D19*
X184520000Y-111840000D03*
D18*
%TO.P,U1,39,VSYS*%
%TO.N,unconnected-(U1-VSYS-Pad39)*%
X185420000Y-114380000D03*
D19*
X184520000Y-114380000D03*
D18*
%TO.P,U1,40,VBUS*%
%TO.N,Net-(D2-K)*%
X185420000Y-116920000D03*
D19*
X184520000Y-116920000D03*
D18*
%TO.P,U1,41,SWCLK*%
%TO.N,unconnected-(U1-SWCLK-Pad41)*%
X196850000Y-68890000D03*
D21*
X196850000Y-67990000D03*
D20*
%TO.P,U1,42,GND*%
%TO.N,unconnected-(U1-GND-Pad42)*%
X194310000Y-68890000D03*
D21*
X194310000Y-67990000D03*
D18*
%TO.P,U1,43,SWDIO*%
%TO.N,unconnected-(U1-SWDIO-Pad43)*%
X191770000Y-68890000D03*
D21*
X191770000Y-67990000D03*
%TD*%
D22*
%TO.P,llc5,1,Pin_a1*%
%TO.N,Net-(U1-GPIO14)*%
X174120477Y-116745000D03*
D12*
%TO.P,llc5,2,Pin_a2*%
%TO.N,Net-(U1-GPIO2)*%
X174120477Y-114205000D03*
%TO.P,llc5,3,Pin_a3*%
%TO.N,Net-(Display1-Pin_2)*%
X174120477Y-111665000D03*
%TO.P,llc5,4,Pin_a4*%
%TO.N,Net-(llc5-Pin_a4)*%
X174120477Y-109125000D03*
%TO.P,llc5,5,Pin_a5*%
%TO.N,Net-(U1-GPIO3)*%
X174120477Y-106585000D03*
%TO.P,llc5,6,Pin_a6*%
%TO.N,unconnected-(llc5-Pin_a6-Pad6)*%
X174120477Y-104045000D03*
%TO.P,llc5,7,Pin_b6*%
%TO.N,unconnected-(llc5-Pin_b6-Pad7)*%
X163960477Y-104045000D03*
%TO.P,llc5,8,Pin_b5*%
%TO.N,Net-(llc5-Pin_b5)*%
X163960477Y-106585000D03*
%TO.P,llc5,9,Pin_b4*%
%TO.N,Net-(llc3-Pin_b4)*%
X163960477Y-109125000D03*
%TO.P,llc5,10,Pin_b3*%
%TO.N,Net-(D2-A)*%
X163960477Y-111665000D03*
%TO.P,llc5,11,Pin_b2*%
%TO.N,Net-(llc5-Pin_b2)*%
X163960477Y-114205000D03*
%TO.P,llc5,12,Pin_b1*%
%TO.N,Net-(llc5-Pin_b1)*%
X163960477Y-116745000D03*
%TD*%
D10*
%TO.P,Controller-1,0,PAD*%
%TO.N,unconnected-(Controller-1-PAD-Pad0)*%
X156995662Y-89845000D03*
X156995662Y-114845000D03*
D11*
%TO.P,Controller-1,1,1*%
%TO.N,Net-(llc6-Pin_b1)*%
X158415662Y-96805000D03*
D12*
%TO.P,Controller-1,2,2*%
%TO.N,Net-(llc6-Pin_b2)*%
X158415662Y-99575000D03*
%TO.P,Controller-1,3,3*%
%TO.N,Net-(llc6-Pin_b5)*%
X158415662Y-102345000D03*
%TO.P,Controller-1,4,4*%
%TO.N,Net-(llc6-Pin_b6)*%
X158415662Y-105115000D03*
%TO.P,Controller-1,5,5*%
%TO.N,Net-(llc5-Pin_b5)*%
X158415662Y-107885000D03*
%TO.P,Controller-1,6,6*%
%TO.N,Net-(llc5-Pin_b1)*%
X155575662Y-98190000D03*
%TO.P,Controller-1,7,7*%
%TO.N,Net-(D2-A)*%
X155575662Y-100960000D03*
%TO.P,Controller-1,8,8*%
%TO.N,Net-(llc3-Pin_b4)*%
X155575662Y-103730000D03*
%TO.P,Controller-1,9,9*%
%TO.N,Net-(llc5-Pin_b2)*%
X155575662Y-106500000D03*
%TD*%
D20*
%TO.P,Display1,1,Pin_1*%
%TO.N,Net-(D1-K)*%
X211150000Y-82000000D03*
D23*
%TO.P,Display1,2,Pin_2*%
%TO.N,Net-(Display1-Pin_2)*%
X211150000Y-84540000D03*
%TO.P,Display1,3,Pin_3*%
%TO.N,Net-(Display1-Pin_3)*%
X211150000Y-87080000D03*
%TO.P,Display1,4,Pin_4*%
%TO.N,Net-(Display1-Pin_4)*%
X211150000Y-89620000D03*
%TO.P,Display1,5,Pin_5*%
%TO.N,unconnected-(Display1-Pin_5-Pad5)*%
X211150000Y-92160000D03*
%TO.P,Display1,6,Pin_6*%
%TO.N,Net-(Display1-Pin_6)*%
X211150000Y-94700000D03*
%TO.P,Display1,7,Pin_7*%
%TO.N,Net-(Display1-Pin_7)*%
X211150000Y-97240000D03*
%TO.P,Display1,8,Pin_8*%
%TO.N,Net-(Display1-Pin_8)*%
X211150000Y-99780000D03*
%TD*%
D22*
%TO.P,llc3,1,Pin_a1*%
%TO.N,Net-(U1-GPIO26_ADC0)*%
X174090331Y-82545000D03*
D12*
%TO.P,llc3,2,Pin_a2*%
%TO.N,Net-(U1-GPIO27_ADC1)*%
X174090331Y-80005000D03*
%TO.P,llc3,3,Pin_a3*%
%TO.N,Net-(Display1-Pin_2)*%
X174090331Y-77465000D03*
%TO.P,llc3,4,Pin_a4*%
%TO.N,Net-(llc1-Pin_a4)*%
X174090331Y-74925000D03*
%TO.P,llc3,5,Pin_a5*%
%TO.N,Net-(U1-GPIO28_ADC2)*%
X174090331Y-72385000D03*
%TO.P,llc3,6,Pin_a6*%
%TO.N,unconnected-(llc3-Pin_a6-Pad6)*%
X174090331Y-69845000D03*
%TO.P,llc3,7,Pin_b6*%
%TO.N,unconnected-(llc3-Pin_b6-Pad7)*%
X163930331Y-69845000D03*
%TO.P,llc3,8,Pin_b5*%
%TO.N,Net-(llc3-Pin_b5)*%
X163930331Y-72385000D03*
%TO.P,llc3,9,Pin_b4*%
%TO.N,Net-(llc3-Pin_b4)*%
X163930331Y-74925000D03*
%TO.P,llc3,10,Pin_b3*%
%TO.N,Net-(D2-A)*%
X163930331Y-77465000D03*
%TO.P,llc3,11,Pin_b2*%
%TO.N,Net-(llc3-Pin_b2)*%
X163930331Y-80005000D03*
%TO.P,llc3,12,Pin_b1*%
%TO.N,Net-(llc3-Pin_b1)*%
X163930331Y-82545000D03*
%TD*%
D22*
%TO.P,llc4,1,Pin_a1*%
%TO.N,Net-(U1-GPIO19)*%
X174090331Y-66445000D03*
D12*
%TO.P,llc4,2,Pin_a2*%
%TO.N,Net-(U1-GPIO20)*%
X174090331Y-63905000D03*
%TO.P,llc4,3,Pin_a3*%
%TO.N,Net-(Display1-Pin_2)*%
X174090331Y-61365000D03*
%TO.P,llc4,4,Pin_a4*%
%TO.N,Net-(llc1-Pin_a4)*%
X174090331Y-58825000D03*
%TO.P,llc4,5,Pin_a5*%
%TO.N,Net-(U1-GPIO21)*%
X174090331Y-56285000D03*
%TO.P,llc4,6,Pin_a6*%
%TO.N,Net-(U1-GPIO22)*%
X174090331Y-53745000D03*
%TO.P,llc4,7,Pin_b6*%
%TO.N,Net-(llc4-Pin_b6)*%
X163930331Y-53745000D03*
%TO.P,llc4,8,Pin_b5*%
%TO.N,Net-(llc4-Pin_b5)*%
X163930331Y-56285000D03*
%TO.P,llc4,9,Pin_b4*%
%TO.N,Net-(llc3-Pin_b4)*%
X163930331Y-58825000D03*
%TO.P,llc4,10,Pin_b3*%
%TO.N,Net-(D2-A)*%
X163930331Y-61365000D03*
%TO.P,llc4,11,Pin_b2*%
%TO.N,Net-(llc4-Pin_b2)*%
X163930331Y-63905000D03*
%TO.P,llc4,12,Pin_b1*%
%TO.N,Net-(llc4-Pin_b1)*%
X163930331Y-66445000D03*
%TD*%
D24*
%TO.P,R1,1*%
%TO.N,Net-(D1-A)*%
X202600000Y-48120000D03*
%TO.P,R1,2*%
%TO.N,Net-(Display1-Pin_2)*%
X202600000Y-55740000D03*
%TD*%
D16*
%TO.P,D3,1,K*%
%TO.N,Net-(D2-K)*%
X186880000Y-54400000D03*
D17*
%TO.P,D3,2,A*%
%TO.N,Net-(D3-A)*%
X176720000Y-54400000D03*
%TD*%
D22*
%TO.P,llc6,1,Pin_a1*%
%TO.N,Net-(U1-GPIO10)*%
X174120477Y-100645000D03*
D12*
%TO.P,llc6,2,Pin_a2*%
%TO.N,Net-(U1-GPIO11)*%
X174120477Y-98105000D03*
%TO.P,llc6,3,Pin_a3*%
%TO.N,Net-(Display1-Pin_2)*%
X174120477Y-95565000D03*
%TO.P,llc6,4,Pin_a4*%
%TO.N,Net-(llc5-Pin_a4)*%
X174120477Y-93025000D03*
%TO.P,llc6,5,Pin_a5*%
%TO.N,Net-(U1-GPIO12)*%
X174120477Y-90485000D03*
%TO.P,llc6,6,Pin_a6*%
%TO.N,Net-(U1-GPIO13)*%
X174120477Y-87945000D03*
%TO.P,llc6,7,Pin_b6*%
%TO.N,Net-(llc6-Pin_b6)*%
X163960477Y-87945000D03*
%TO.P,llc6,8,Pin_b5*%
%TO.N,Net-(llc6-Pin_b5)*%
X163960477Y-90485000D03*
%TO.P,llc6,9,Pin_b4*%
%TO.N,Net-(llc3-Pin_b4)*%
X163960477Y-93025000D03*
%TO.P,llc6,10,Pin_b3*%
%TO.N,Net-(D2-A)*%
X163960477Y-95565000D03*
%TO.P,llc6,11,Pin_b2*%
%TO.N,Net-(llc6-Pin_b2)*%
X163960477Y-98105000D03*
%TO.P,llc6,12,Pin_b1*%
%TO.N,Net-(llc6-Pin_b1)*%
X163960477Y-100645000D03*
%TD*%
D25*
%TO.P,D1,1,K*%
%TO.N,Net-(D1-K)*%
X211000000Y-50660000D03*
D26*
%TO.P,D1,2,A*%
%TO.N,Net-(D1-A)*%
X208460000Y-50660000D03*
%TD*%
D27*
%TO.P,llc1,1,Pin_a1*%
%TO.N,unconnected-(llc1-Pin_a1-Pad1)*%
X164460000Y-46080000D03*
D12*
%TO.P,llc1,2,Pin_a2*%
%TO.N,Net-(U1-GPIO4)*%
X167000000Y-46080000D03*
%TO.P,llc1,3,Pin_a3*%
%TO.N,Net-(Display1-Pin_2)*%
X169540000Y-46080000D03*
%TO.P,llc1,4,Pin_a4*%
%TO.N,Net-(llc1-Pin_a4)*%
X172080000Y-46080000D03*
%TO.P,llc1,5,Pin_a5*%
%TO.N,Net-(U1-GPIO5)*%
X174620000Y-46080000D03*
%TO.P,llc1,6,Pin_a6*%
%TO.N,Net-(U1-GPIO6)*%
X177160000Y-46080000D03*
%TO.P,llc1,7,Pin_b6*%
%TO.N,Net-(llc1-Pin_b6)*%
X177160000Y-35920000D03*
%TO.P,llc1,8,Pin_b5*%
%TO.N,Net-(llc1-Pin_b5)*%
X174620000Y-35920000D03*
%TO.P,llc1,9,Pin_b4*%
%TO.N,Net-(llc1-Pin_b4)*%
X172080000Y-35920000D03*
%TO.P,llc1,10,Pin_b3*%
%TO.N,Net-(D2-K)*%
X169540000Y-35920000D03*
%TO.P,llc1,11,Pin_b2*%
%TO.N,unconnected-(llc1-Pin_b2-Pad11)*%
X167000000Y-35920000D03*
%TO.P,llc1,12,Pin_b1*%
%TO.N,unconnected-(llc1-Pin_b1-Pad12)*%
X164460000Y-35920000D03*
%TD*%
D20*
%TO.P,Debug1,1,Pin_1*%
%TO.N,Net-(Debug1-Pin_1)*%
X214200000Y-116940000D03*
D23*
%TO.P,Debug1,2,Pin_2*%
%TO.N,Net-(Debug1-Pin_2)*%
X214200000Y-114400000D03*
%TO.P,Debug1,3,Pin_3*%
%TO.N,Net-(Debug1-Pin_3)*%
X214000000Y-111860000D03*
%TD*%
D28*
%TO.N,Net-(D1-K)*%
X202024000Y-59636000D02*
X211000000Y-50660000D01*
X206176000Y-74916000D02*
X202024000Y-74916000D01*
X211150000Y-82000000D02*
X211150000Y-79890000D01*
X210650000Y-39800000D02*
X210650000Y-33300000D01*
X210650000Y-39800000D02*
X210650000Y-50310000D01*
X210650000Y-50310000D02*
X211000000Y-50660000D01*
X211150000Y-79890000D02*
X206176000Y-74916000D01*
X202024000Y-74916000D02*
X202024000Y-59636000D01*
%TO.N,Net-(Display1-Pin_3)*%
X203200000Y-88980000D02*
X209250000Y-88980000D01*
X209250000Y-88980000D02*
X211150000Y-87080000D01*
%TO.N,Net-(Display1-Pin_4)*%
X209250000Y-91520000D02*
X211150000Y-89620000D01*
X203200000Y-91520000D02*
X209250000Y-91520000D01*
%TO.N,Net-(llc3-Pin_b4)*%
X155575662Y-103730000D02*
X158730000Y-103730000D01*
X163960477Y-93025000D02*
X159943662Y-93025000D01*
X165086477Y-76081146D02*
X165086477Y-91899000D01*
X159943662Y-93025000D02*
X156701662Y-96267000D01*
X158730000Y-103730000D02*
X163960477Y-108960477D01*
X163960477Y-108960477D02*
X163960477Y-109125000D01*
X165086477Y-91899000D02*
X163960477Y-93025000D01*
X156701662Y-102604000D02*
X155575662Y-103730000D01*
X156701662Y-96267000D02*
X156701662Y-102604000D01*
X163930331Y-74925000D02*
X165086477Y-76081146D01*
%TO.N,Net-(D2-K)*%
X186880000Y-61000000D02*
X186880000Y-54400000D01*
%TO.N,unconnected-(Controller-1-PAD-Pad0)*%
X156995662Y-114845000D02*
X154449662Y-112299000D01*
X154449662Y-112299000D02*
X154449662Y-92391000D01*
X154449662Y-92391000D02*
X156995662Y-89845000D01*
%TO.N,Net-(U1-GPIO19)*%
X174090331Y-66445000D02*
X182444000Y-74798669D01*
X183808000Y-78820000D02*
X185420000Y-78820000D01*
X182444000Y-74798669D02*
X182444000Y-77456000D01*
X182444000Y-77456000D02*
X183808000Y-78820000D01*
%TO.N,Net-(U1-GPIO20)*%
X174090331Y-63905000D02*
X182749331Y-72564000D01*
X182749331Y-72564000D02*
X186596000Y-72564000D01*
X186596000Y-80184000D02*
X185420000Y-81360000D01*
X186596000Y-72564000D02*
X186596000Y-80184000D01*
%TO.N,Net-(U1-GPIO21)*%
X187047000Y-82273000D02*
X185420000Y-83900000D01*
X174090331Y-56285000D02*
X175221701Y-56285000D01*
X187047000Y-68110299D02*
X187047000Y-82273000D01*
X175221701Y-56285000D02*
X187047000Y-68110299D01*
%TO.N,Net-(U1-GPIO22)*%
X174090331Y-53917666D02*
X174880665Y-54708000D01*
X174920321Y-54708000D02*
X187949000Y-67736679D01*
X174880665Y-54708000D02*
X174920321Y-54708000D01*
X187949000Y-67776335D02*
X191600000Y-71427335D01*
X174090331Y-53745000D02*
X174090331Y-53917666D01*
X191600000Y-82800000D02*
X185420000Y-88980000D01*
X187949000Y-67736679D02*
X187949000Y-67776335D01*
X191600000Y-71427335D02*
X191600000Y-82800000D01*
%TO.N,Net-(U1-GPIO28_ADC2)*%
X174090331Y-72385000D02*
X182444000Y-80738669D01*
X183808000Y-101680000D02*
X185420000Y-101680000D01*
X182444000Y-100316000D02*
X183808000Y-101680000D01*
X182444000Y-80738669D02*
X182444000Y-100316000D01*
%TO.N,Net-(Debug1-Pin_1)*%
X214180000Y-116920000D02*
X214200000Y-116940000D01*
X203200000Y-116920000D02*
X214180000Y-116920000D01*
%TO.N,Net-(Debug1-Pin_3)*%
X213980000Y-111840000D02*
X214000000Y-111860000D01*
X203200000Y-111840000D02*
X213980000Y-111840000D01*
%TO.N,Net-(U1-GPIO26_ADC0)*%
X187047000Y-104945000D02*
X187047000Y-95687000D01*
X187047000Y-95687000D02*
X185420000Y-94060000D01*
X181542000Y-89996669D02*
X181542000Y-104494000D01*
X174090331Y-82545000D02*
X181542000Y-89996669D01*
X182444000Y-105396000D02*
X186596000Y-105396000D01*
X186596000Y-105396000D02*
X187047000Y-104945000D01*
X181542000Y-104494000D02*
X182444000Y-105396000D01*
%TO.N,Net-(llc6-Pin_b1)*%
X158415662Y-96805000D02*
X160120477Y-96805000D01*
X160120477Y-96805000D02*
X163960477Y-100645000D01*
%TO.N,Net-(U1-GPIO27_ADC1)*%
X186596000Y-102856000D02*
X186596000Y-97776000D01*
X181993000Y-87907669D02*
X181993000Y-102405000D01*
X181993000Y-102405000D02*
X182444000Y-102856000D01*
X182444000Y-102856000D02*
X186596000Y-102856000D01*
X174090331Y-80005000D02*
X181993000Y-87907669D01*
X186596000Y-97776000D02*
X185420000Y-96600000D01*
%TO.N,unconnected-(Controller-2-PAD-Pad0)*%
X156910331Y-80690000D02*
X154364331Y-78144000D01*
X154364331Y-58236000D02*
X156910331Y-55690000D01*
X154364331Y-78144000D02*
X154364331Y-58236000D01*
%TO.N,Net-(U1-RUN)*%
X206150000Y-33300000D02*
X206150000Y-39800000D01*
%TO.N,Net-(Display1-Pin_2)*%
X213000000Y-86390000D02*
X211150000Y-84540000D01*
X183170190Y-106760000D02*
X185420000Y-106760000D01*
X174250331Y-95565000D02*
X181091000Y-102405669D01*
X185420000Y-106760000D02*
X186596000Y-107936000D01*
X213000000Y-101200000D02*
X213000000Y-86390000D01*
X206264000Y-107936000D02*
X213000000Y-101200000D01*
X181091000Y-104680810D02*
X183170190Y-106760000D01*
X186596000Y-107936000D02*
X206264000Y-107936000D01*
X181091000Y-102405669D02*
X181091000Y-104680810D01*
%TO.N,Net-(U1-GPIO14)*%
X190136000Y-110664000D02*
X187600000Y-113200000D01*
X203200000Y-71200000D02*
X204800000Y-71200000D01*
X187600000Y-113200000D02*
X180800000Y-113200000D01*
X180800000Y-113200000D02*
X177255000Y-116745000D01*
X213451000Y-103201000D02*
X205988000Y-110664000D01*
X213451000Y-79851000D02*
X213451000Y-103201000D01*
X204800000Y-71200000D02*
X213451000Y-79851000D01*
X177255000Y-116745000D02*
X174120477Y-116745000D01*
X205988000Y-110664000D02*
X190136000Y-110664000D01*
%TO.N,unconnected-(U1-GND-Pad23)*%
X185420000Y-73740000D02*
X186145000Y-73740000D01*
%TO.N,Net-(D2-A)*%
X164396736Y-73799000D02*
X163463926Y-73799000D01*
X165537477Y-93988000D02*
X165537477Y-74939741D01*
X155490331Y-65627405D02*
X155490331Y-66805000D01*
X162804331Y-76339000D02*
X163930331Y-77465000D01*
X157341736Y-63776000D02*
X155490331Y-65627405D01*
X163930331Y-61365000D02*
X161519331Y-63776000D01*
X156616331Y-73608405D02*
X160472926Y-77465000D01*
X161519331Y-63776000D02*
X157341736Y-63776000D01*
X160472926Y-77465000D02*
X163930331Y-77465000D01*
X163960477Y-95565000D02*
X165537477Y-93988000D01*
X165537477Y-74939741D02*
X164396736Y-73799000D01*
X156616331Y-67931000D02*
X156616331Y-73608405D01*
X155490331Y-66805000D02*
X156616331Y-67931000D01*
X162804331Y-74458595D02*
X162804331Y-76339000D01*
X163463926Y-73799000D02*
X162804331Y-74458595D01*
%TO.N,Net-(Debug1-Pin_2)*%
X205980000Y-114380000D02*
X206000000Y-114400000D01*
X206000000Y-114400000D02*
X214200000Y-114400000D01*
X203200000Y-114380000D02*
X205980000Y-114380000D01*
%TO.N,Net-(llc1-Pin_b6)*%
X169818486Y-38800000D02*
X174280000Y-38800000D01*
X160120406Y-48498080D02*
X169818486Y-38800000D01*
X174280000Y-38800000D02*
X177160000Y-35920000D01*
X153997200Y-48498080D02*
X160120406Y-48498080D01*
%TO.N,Net-(llc5-Pin_a4)*%
X172800000Y-107674669D02*
X172800000Y-94475331D01*
X174250331Y-109125000D02*
X172800000Y-107674669D01*
X172800000Y-94475331D02*
X174250331Y-93025000D01*
%TO.N,Net-(U1-GPIO4)*%
X203200000Y-104220000D02*
X199200000Y-100220000D01*
X167000000Y-48800000D02*
X167000000Y-46080000D01*
X190400000Y-50400000D02*
X168600000Y-50400000D01*
X168600000Y-50400000D02*
X167000000Y-48800000D01*
X199200000Y-100220000D02*
X199200000Y-59200000D01*
X199200000Y-59200000D02*
X190400000Y-50400000D01*
%TO.N,Net-(llc1-Pin_a4)*%
X174733511Y-55159000D02*
X187498000Y-67923489D01*
X187498000Y-84362000D02*
X185420000Y-86440000D01*
X165874000Y-48311810D02*
X172721190Y-55159000D01*
X174090331Y-74925000D02*
X172964331Y-73799000D01*
X172080000Y-46080000D02*
X170954000Y-44954000D01*
X173623926Y-55159000D02*
X174733511Y-55159000D01*
X172964331Y-55818595D02*
X173623926Y-55159000D01*
X172964331Y-59951000D02*
X172964331Y-73799000D01*
X187498000Y-67923489D02*
X187498000Y-84362000D01*
X174090331Y-58825000D02*
X172964331Y-59951000D01*
X172721190Y-55159000D02*
X173623926Y-55159000D01*
X172964331Y-73799000D02*
X172964331Y-55818595D01*
X166533595Y-44954000D02*
X165874000Y-45613595D01*
X165874000Y-45613595D02*
X165874000Y-48311810D01*
X170954000Y-44954000D02*
X166533595Y-44954000D01*
%TO.N,Net-(llc1-Pin_b4)*%
X172060676Y-35920000D02*
X161984496Y-45996180D01*
X161984496Y-45996180D02*
X156499100Y-45996180D01*
X172080000Y-35920000D02*
X172060676Y-35920000D01*
%TO.N,Net-(U1-GPIO5)*%
X175800000Y-49800000D02*
X174620000Y-48620000D01*
X203200000Y-101680000D02*
X199651000Y-98131000D01*
X199651000Y-98131000D02*
X199651000Y-58851000D01*
X199651000Y-58851000D02*
X190600000Y-49800000D01*
X190600000Y-49800000D02*
X175800000Y-49800000D01*
X174620000Y-48620000D02*
X174620000Y-46080000D01*
%TO.N,Net-(U1-GPIO6)*%
X178400000Y-49200000D02*
X177160000Y-47960000D01*
X177160000Y-47960000D02*
X177160000Y-46080000D01*
X200102000Y-93502000D02*
X200102000Y-58664190D01*
X203200000Y-96600000D02*
X200102000Y-93502000D01*
X200102000Y-58664190D02*
X190637810Y-49200000D01*
X190637810Y-49200000D02*
X178400000Y-49200000D01*
%TO.N,Net-(llc1-Pin_b5)*%
X160999740Y-34000000D02*
X153999740Y-41000000D01*
X172700000Y-34000000D02*
X160999740Y-34000000D01*
X174620000Y-35920000D02*
X172700000Y-34000000D01*
%TD*%
M02*
