M48
; DRILL file {KiCad 9.0.7} date 2026-08-01T22:30:53+0100
; FORMAT={-:-/ absolute / metric / decimal}
; #@! TF.CreationDate,2026-08-01T22:30:53+01:00
; #@! TF.GenerationSoftware,Kicad,Pcbnew,9.0.7
; #@! TF.FileFunction,Plated,1,2,PTH
FMAT,2
METRIC
; #@! TA.AperFunction,Plated,PTH,ComponentDrill
T1C0.700
; #@! TA.AperFunction,Plated,PTH,ComponentDrill
T2C0.800
; #@! TA.AperFunction,Plated,PTH,ComponentDrill
T3C0.900
; #@! TA.AperFunction,Plated,PTH,ComponentDrill
T4C1.000
; #@! TA.AperFunction,Plated,PTH,ComponentDrill
T5C1.020
; #@! TA.AperFunction,Plated,PTH,ComponentDrill
T6C1.100
; #@! TA.AperFunction,Plated,PTH,ComponentDrill
T7C1.397
; #@! TA.AperFunction,Plated,PTH,ComponentDrill
T8C3.200
%
G90
G05
T1
X202.6Y-48.12
X202.6Y-55.74
T2
X163.93Y-53.745
X163.93Y-56.285
X163.93Y-58.825
X163.93Y-61.365
X163.93Y-63.905
X163.93Y-66.445
X163.93Y-69.845
X163.93Y-72.385
X163.93Y-74.925
X163.93Y-77.465
X163.93Y-80.005
X163.93Y-82.545
X163.96Y-87.945
X163.96Y-90.485
X163.96Y-93.025
X163.96Y-95.565
X163.96Y-98.105
X163.96Y-100.645
X163.96Y-104.045
X163.96Y-106.585
X163.96Y-109.125
X163.96Y-111.665
X163.96Y-114.205
X163.96Y-116.745
X164.46Y-35.92
X164.46Y-46.08
X167.0Y-35.92
X167.0Y-46.08
X169.54Y-35.92
X169.54Y-46.08
X172.08Y-35.92
X172.08Y-46.08
X174.09Y-53.745
X174.09Y-56.285
X174.09Y-58.825
X174.09Y-61.365
X174.09Y-63.905
X174.09Y-66.445
X174.09Y-69.845
X174.09Y-72.385
X174.09Y-74.925
X174.09Y-77.465
X174.09Y-80.005
X174.09Y-82.545
X174.12Y-87.945
X174.12Y-90.485
X174.12Y-93.025
X174.12Y-95.565
X174.12Y-98.105
X174.12Y-100.645
X174.12Y-104.045
X174.12Y-106.585
X174.12Y-109.125
X174.12Y-111.665
X174.12Y-114.205
X174.12Y-116.745
X174.62Y-35.92
X174.62Y-46.08
X177.16Y-35.92
X177.16Y-46.08
T3
X208.46Y-50.66
X211.0Y-50.66
T4
X155.49Y-64.035
X155.49Y-66.805
X155.49Y-69.575
X155.49Y-72.345
X155.576Y-98.19
X155.576Y-100.96
X155.576Y-103.73
X155.576Y-106.5
X158.33Y-62.65
X158.33Y-65.42
X158.33Y-68.19
X158.33Y-70.96
X158.33Y-73.73
X158.416Y-96.805
X158.416Y-99.575
X158.416Y-102.345
X158.416Y-105.115
X158.416Y-107.885
X211.15Y-82.0
X211.15Y-84.54
X211.15Y-87.08
X211.15Y-89.62
X211.15Y-92.16
X211.15Y-94.7
X211.15Y-97.24
X211.15Y-99.78
X214.0Y-111.86
X214.2Y-114.4
X214.2Y-116.94
T5
X185.42Y-68.66
X185.42Y-71.2
X185.42Y-73.74
X185.42Y-76.28
X185.42Y-78.82
X185.42Y-81.36
X185.42Y-83.9
X185.42Y-86.44
X185.42Y-88.98
X185.42Y-91.52
X185.42Y-94.06
X185.42Y-96.6
X185.42Y-99.14
X185.42Y-101.68
X185.42Y-104.22
X185.42Y-106.76
X185.42Y-109.3
X185.42Y-111.84
X185.42Y-114.38
X185.42Y-116.92
X191.77Y-68.89
X194.31Y-68.89
X196.85Y-68.89
X203.2Y-68.66
X203.2Y-71.2
X203.2Y-73.74
X203.2Y-76.28
X203.2Y-78.82
X203.2Y-81.36
X203.2Y-83.9
X203.2Y-86.44
X203.2Y-88.98
X203.2Y-91.52
X203.2Y-94.06
X203.2Y-96.6
X203.2Y-99.14
X203.2Y-101.68
X203.2Y-104.22
X203.2Y-106.76
X203.2Y-109.3
X203.2Y-111.84
X203.2Y-114.38
X203.2Y-116.92
T6
X176.72Y-54.4
X176.72Y-61.0
X186.88Y-54.4
X186.88Y-61.0
X206.15Y-33.3
X206.15Y-39.8
X210.65Y-33.3
X210.65Y-39.8
T7
X153.997Y-33.502
X153.997Y-48.498
X154.0Y-41.0
X156.499Y-36.004
X156.499Y-45.996
T8
X156.91Y-55.69
X156.91Y-80.69
X156.996Y-89.845
X156.996Y-114.845
M30
