%TF.GenerationSoftware,KiCad,Pcbnew,9.0.7*%
%TF.CreationDate,2026-08-01T22:30:49+01:00*%
%TF.ProjectId,amiga-generic-dsub,616d6967-612d-4676-956e-657269632d64,2.3*%
%TF.SameCoordinates,Original*%
%TF.FileFunction,Copper,L2,Bot*%
%TF.FilePolarity,Positive*%
%FSLAX46Y46*%
G04 Gerber Fmt 4.6, Leading zero omitted, Abs format (unit mm)*
G04 Created by KiCad (PCBNEW 9.0.7) date 2026-08-01 22:30:49*
%MOMM*%
%LPD*%
G01*
G04 APERTURE LIST*
G04 Aperture macros list*
%AMRoundRect*
0 Rectangle with rounded corners*
0 $1 Rounding radius*
0 $2 $3 $4 $5 $6 $7 $8 $9 X,Y pos of 4 corners*
0 Add a 4 corners polygon primitive as box body*
4,1,4,$2,$3,$4,$5,$6,$7,$8,$9,$2,$3,0*
0 Add four circle primitives for the rounded corners*
1,1,$1+$1,$2,$3*
1,1,$1+$1,$4,$5*
1,1,$1+$1,$6,$7*
1,1,$1+$1,$8,$9*
0 Add four rect primitives between the rounded corners*
20,1,$1+$1,$2,$3,$4,$5,0*
20,1,$1+$1,$4,$5,$6,$7,0*
20,1,$1+$1,$6,$7,$8,$9,0*
20,1,$1+$1,$8,$9,$2,$3,0*%
G04 Aperture macros list end*
%TA.AperFunction,ComponentPad*%
%ADD10C,4.000000*%
%TD*%
%TA.AperFunction,ComponentPad*%
%ADD11R,1.600000X1.600000*%
%TD*%
%TA.AperFunction,ComponentPad*%
%ADD12C,1.600000*%
%TD*%
%TA.AperFunction,WasherPad*%
%ADD13C,2.499360*%
%TD*%
%TA.AperFunction,ComponentPad*%
%ADD14C,2.499360*%
%TD*%
%TA.AperFunction,ComponentPad*%
%ADD15C,2.000000*%
%TD*%
%TA.AperFunction,ComponentPad*%
%ADD16RoundRect,0.249999X0.850001X0.850001X-0.850001X0.850001X-0.850001X-0.850001X0.850001X-0.850001X0*%
%TD*%
%TA.AperFunction,ComponentPad*%
%ADD17C,2.200000*%
%TD*%
%TA.AperFunction,ComponentPad*%
%ADD18O,1.700000X1.700000*%
%TD*%
%TA.AperFunction,ComponentPad*%
%ADD19R,1.700000X1.700000*%
%TD*%
%TA.AperFunction,ComponentPad*%
%ADD20RoundRect,0.250000X0.550000X0.550000X-0.550000X0.550000X-0.550000X-0.550000X0.550000X-0.550000X0*%
%TD*%
%TA.AperFunction,ComponentPad*%
%ADD21C,1.700000*%
%TD*%
%TA.AperFunction,ComponentPad*%
%ADD22C,1.400000*%
%TD*%
%TA.AperFunction,ComponentPad*%
%ADD23R,1.800000X1.800000*%
%TD*%
%TA.AperFunction,ComponentPad*%
%ADD24C,1.800000*%
%TD*%
%TA.AperFunction,ComponentPad*%
%ADD25RoundRect,0.250000X0.550000X-0.550000X0.550000X0.550000X-0.550000X0.550000X-0.550000X-0.550000X0*%
%TD*%
%TA.AperFunction,Conductor*%
%ADD26C,0.250000*%
%TD*%
G04 APERTURE END LIST*
D10*
%TO.P,Controller-2,0,PAD*%
%TO.N,unconnected-(Controller-2-PAD-Pad0)*%
X156910331Y-55690000D03*
X156910331Y-80690000D03*
D11*
%TO.P,Controller-2,1,1*%
%TO.N,Net-(llc4-Pin_b1)*%
X158330331Y-62650000D03*
D12*
%TO.P,Controller-2,2,2*%
%TO.N,Net-(llc4-Pin_b2)*%
X158330331Y-65420000D03*
%TO.P,Controller-2,3,3*%
%TO.N,Net-(llc4-Pin_b5)*%
X158330331Y-68190000D03*
%TO.P,Controller-2,4,4*%
%TO.N,Net-(llc4-Pin_b6)*%
X158330331Y-70960000D03*
%TO.P,Controller-2,5,5*%
%TO.N,Net-(llc3-Pin_b5)*%
X158330331Y-73730000D03*
%TO.P,Controller-2,6,6*%
%TO.N,Net-(llc3-Pin_b1)*%
X155490331Y-64035000D03*
%TO.P,Controller-2,7,7*%
%TO.N,Net-(D2-A)*%
X155490331Y-66805000D03*
%TO.P,Controller-2,8,8*%
%TO.N,Net-(llc3-Pin_b4)*%
X155490331Y-69575000D03*
%TO.P,Controller-2,9,9*%
%TO.N,Net-(llc3-Pin_b2)*%
X155490331Y-72345000D03*
%TD*%
D13*
%TO.P,J1,*%
%TO.N,*%
X144002300Y-35998740D03*
X144002300Y-46001260D03*
D14*
%TO.P,J1,1*%
%TO.N,Net-(llc1-Pin_b6)*%
X153997200Y-48498080D03*
%TO.P,J1,2*%
%TO.N,Net-(llc1-Pin_b5)*%
X153999740Y-41000000D03*
%TO.P,J1,3*%
%TO.N,unconnected-(J1-Pad3)*%
X153997200Y-33501920D03*
%TO.P,J1,4*%
%TO.N,Net-(llc1-Pin_b4)*%
X156499100Y-45996180D03*
%TO.P,J1,5*%
%TO.N,Net-(D3-A)*%
X156499100Y-36003820D03*
%TD*%
D15*
%TO.P,Reset1,1,1*%
%TO.N,Net-(U1-RUN)*%
X206150000Y-39800000D03*
X206150000Y-33300000D03*
%TO.P,Reset1,2,2*%
%TO.N,Net-(D1-K)*%
X210650000Y-39800000D03*
X210650000Y-33300000D03*
%TD*%
D16*
%TO.P,D2,1,K*%
%TO.N,Net-(D2-K)*%
X186880000Y-61000000D03*
D17*
%TO.P,D2,2,A*%
%TO.N,Net-(D2-A)*%
X176720000Y-61000000D03*
%TD*%
D18*
%TO.P,U1,1,GPIO0*%
%TO.N,Net-(Debug1-Pin_1)*%
X203200000Y-116920000D03*
%TO.P,U1,2,GPIO1*%
%TO.N,Net-(Debug1-Pin_2)*%
X203200000Y-114380000D03*
D19*
%TO.P,U1,3,GND*%
%TO.N,Net-(Debug1-Pin_3)*%
X203200000Y-111840000D03*
D18*
%TO.P,U1,4,GPIO2*%
%TO.N,Net-(U1-GPIO2)*%
X203200000Y-109300000D03*
%TO.P,U1,5,GPIO3*%
%TO.N,Net-(U1-GPIO3)*%
X203200000Y-106760000D03*
%TO.P,U1,6,GPIO4*%
%TO.N,Net-(U1-GPIO4)*%
X203200000Y-104220000D03*
%TO.P,U1,7,GPIO5*%
%TO.N,Net-(U1-GPIO5)*%
X203200000Y-101680000D03*
D19*
%TO.P,U1,8,GND*%
%TO.N,Net-(D1-K)*%
X203200000Y-99140000D03*
D18*
%TO.P,U1,9,GPIO6*%
%TO.N,Net-(U1-GPIO6)*%
X203200000Y-96600000D03*
%TO.P,U1,10,GPIO7*%
%TO.N,unconnected-(U1-GPIO7-Pad10)*%
X203200000Y-94060000D03*
%TO.P,U1,11,GPIO8*%
%TO.N,Net-(Display1-Pin_4)*%
X203200000Y-91520000D03*
%TO.P,U1,12,GPIO9*%
%TO.N,Net-(Display1-Pin_3)*%
X203200000Y-88980000D03*
D19*
%TO.P,U1,13,GND*%
%TO.N,unconnected-(U1-GND-Pad13)*%
X203200000Y-86440000D03*
D18*
%TO.P,U1,14,GPIO10*%
%TO.N,Net-(U1-GPIO10)*%
X203200000Y-83900000D03*
%TO.P,U1,15,GPIO11*%
%TO.N,Net-(U1-GPIO11)*%
X203200000Y-81360000D03*
%TO.P,U1,16,GPIO12*%
%TO.N,Net-(U1-GPIO12)*%
X203200000Y-78820000D03*
%TO.P,U1,17,GPIO13*%
%TO.N,Net-(U1-GPIO13)*%
X203200000Y-76280000D03*
D19*
%TO.P,U1,18,GND*%
%TO.N,Net-(llc5-Pin_a4)*%
X203200000Y-73740000D03*
D18*
%TO.P,U1,19,GPIO14*%
%TO.N,Net-(U1-GPIO14)*%
X203200000Y-71200000D03*
%TO.P,U1,20,GPIO15*%
%TO.N,unconnected-(U1-GPIO15-Pad20)*%
X203200000Y-68660000D03*
%TO.P,U1,21,GPIO16*%
%TO.N,Net-(Display1-Pin_6)*%
X185420000Y-68660000D03*
%TO.P,U1,22,GPIO17*%
%TO.N,Net-(Display1-Pin_7)*%
X185420000Y-71200000D03*
D19*
%TO.P,U1,23,GND*%
%TO.N,unconnected-(U1-GND-Pad23)*%
X185420000Y-73740000D03*
D18*
%TO.P,U1,24,GPIO18*%
%TO.N,Net-(Display1-Pin_8)*%
X185420000Y-76280000D03*
%TO.P,U1,25,GPIO19*%
%TO.N,Net-(U1-GPIO19)*%
X185420000Y-78820000D03*
%TO.P,U1,26,GPIO20*%
%TO.N,Net-(U1-GPIO20)*%
X185420000Y-81360000D03*
%TO.P,U1,27,GPIO21*%
%TO.N,Net-(U1-GPIO21)*%
X185420000Y-83900000D03*
D19*
%TO.P,U1,28,GND*%
%TO.N,Net-(llc1-Pin_a4)*%
X185420000Y-86440000D03*
D18*
%TO.P,U1,29,GPIO22*%
%TO.N,Net-(U1-GPIO22)*%
X185420000Y-88980000D03*
%TO.P,U1,30,RUN*%
%TO.N,Net-(U1-RUN)*%
X185420000Y-91520000D03*
%TO.P,U1,31,GPIO26_ADC0*%
%TO.N,Net-(U1-GPIO26_ADC0)*%
X185420000Y-94060000D03*
%TO.P,U1,32,GPIO27_ADC1*%
%TO.N,Net-(U1-GPIO27_ADC1)*%
X185420000Y-96600000D03*
D19*
%TO.P,U1,33,AGND*%
%TO.N,unconnected-(U1-AGND-Pad33)*%
X185420000Y-99140000D03*
D18*
%TO.P,U1,34,GPIO28_ADC2*%
%TO.N,Net-(U1-GPIO28_ADC2)*%
X185420000Y-101680000D03*
%TO.P,U1,35,ADC_VREF*%
%TO.N,unconnected-(U1-ADC_VREF-Pad35)*%
X185420000Y-104220000D03*
%TO.P,U1,36,3V3*%
%TO.N,Net-(Display1-Pin_2)*%
X185420000Y-106760000D03*
%TO.P,U1,37,3V3_EN*%
%TO.N,unconnected-(U1-3V3_EN-Pad37)*%
X185420000Y-109300000D03*
D19*
%TO.P,U1,38,GND*%
%TO.N,Net-(llc3-Pin_b4)*%
X185420000Y-111840000D03*
D18*
%TO.P,U1,39,VSYS*%
%TO.N,unconnected-(U1-VSYS-Pad39)*%
X185420000Y-114380000D03*
%TO.P,U1,40,VBUS*%
%TO.N,Net-(D2-K)*%
X185420000Y-116920000D03*
%TO.P,U1,41,SWCLK*%
%TO.N,unconnected-(U1-SWCLK-Pad41)*%
X196850000Y-68890000D03*
D19*
%TO.P,U1,42,GND*%
%TO.N,unconnected-(U1-GND-Pad42)*%
X194310000Y-68890000D03*
D18*
%TO.P,U1,43,SWDIO*%
%TO.N,unconnected-(U1-SWDIO-Pad43)*%
X191770000Y-68890000D03*
%TD*%
D20*
%TO.P,llc5,1,Pin_a1*%
%TO.N,Net-(U1-GPIO14)*%
X174120477Y-116745000D03*
D12*
%TO.P,llc5,2,Pin_a2*%
%TO.N,Net-(U1-GPIO2)*%
X174120477Y-114205000D03*
%TO.P,llc5,3,Pin_a3*%
%TO.N,Net-(Display1-Pin_2)*%
X174120477Y-111665000D03*
%TO.P,llc5,4,Pin_a4*%
%TO.N,Net-(llc5-Pin_a4)*%
X174120477Y-109125000D03*
%TO.P,llc5,5,Pin_a5*%
%TO.N,Net-(U1-GPIO3)*%
X174120477Y-106585000D03*
%TO.P,llc5,6,Pin_a6*%
%TO.N,unconnected-(llc5-Pin_a6-Pad6)*%
X174120477Y-104045000D03*
%TO.P,llc5,7,Pin_b6*%
%TO.N,unconnected-(llc5-Pin_b6-Pad7)*%
X163960477Y-104045000D03*
%TO.P,llc5,8,Pin_b5*%
%TO.N,Net-(llc5-Pin_b5)*%
X163960477Y-106585000D03*
%TO.P,llc5,9,Pin_b4*%
%TO.N,Net-(llc3-Pin_b4)*%
X163960477Y-109125000D03*
%TO.P,llc5,10,Pin_b3*%
%TO.N,Net-(D2-A)*%
X163960477Y-111665000D03*
%TO.P,llc5,11,Pin_b2*%
%TO.N,Net-(llc5-Pin_b2)*%
X163960477Y-114205000D03*
%TO.P,llc5,12,Pin_b1*%
%TO.N,Net-(llc5-Pin_b1)*%
X163960477Y-116745000D03*
%TD*%
D10*
%TO.P,Controller-1,0,PAD*%
%TO.N,unconnected-(Controller-1-PAD-Pad0)*%
X156995662Y-89845000D03*
X156995662Y-114845000D03*
D11*
%TO.P,Controller-1,1,1*%
%TO.N,Net-(llc6-Pin_b1)*%
X158415662Y-96805000D03*
D12*
%TO.P,Controller-1,2,2*%
%TO.N,Net-(llc6-Pin_b2)*%
X158415662Y-99575000D03*
%TO.P,Controller-1,3,3*%
%TO.N,Net-(llc6-Pin_b5)*%
X158415662Y-102345000D03*
%TO.P,Controller-1,4,4*%
%TO.N,Net-(llc6-Pin_b6)*%
X158415662Y-105115000D03*
%TO.P,Controller-1,5,5*%
%TO.N,Net-(llc5-Pin_b5)*%
X158415662Y-107885000D03*
%TO.P,Controller-1,6,6*%
%TO.N,Net-(llc5-Pin_b1)*%
X155575662Y-98190000D03*
%TO.P,Controller-1,7,7*%
%TO.N,Net-(D2-A)*%
X155575662Y-100960000D03*
%TO.P,Controller-1,8,8*%
%TO.N,Net-(llc3-Pin_b4)*%
X155575662Y-103730000D03*
%TO.P,Controller-1,9,9*%
%TO.N,Net-(llc5-Pin_b2)*%
X155575662Y-106500000D03*
%TD*%
D19*
%TO.P,Display1,1,Pin_1*%
%TO.N,Net-(D1-K)*%
X211150000Y-82000000D03*
D21*
%TO.P,Display1,2,Pin_2*%
%TO.N,Net-(Display1-Pin_2)*%
X211150000Y-84540000D03*
%TO.P,Display1,3,Pin_3*%
%TO.N,Net-(Display1-Pin_3)*%
X211150000Y-87080000D03*
%TO.P,Display1,4,Pin_4*%
%TO.N,Net-(Display1-Pin_4)*%
X211150000Y-89620000D03*
%TO.P,Display1,5,Pin_5*%
%TO.N,unconnected-(Display1-Pin_5-Pad5)*%
X211150000Y-92160000D03*
%TO.P,Display1,6,Pin_6*%
%TO.N,Net-(Display1-Pin_6)*%
X211150000Y-94700000D03*
%TO.P,Display1,7,Pin_7*%
%TO.N,Net-(Display1-Pin_7)*%
X211150000Y-97240000D03*
%TO.P,Display1,8,Pin_8*%
%TO.N,Net-(Display1-Pin_8)*%
X211150000Y-99780000D03*
%TD*%
D20*
%TO.P,llc3,1,Pin_a1*%
%TO.N,Net-(U1-GPIO26_ADC0)*%
X174090331Y-82545000D03*
D12*
%TO.P,llc3,2,Pin_a2*%
%TO.N,Net-(U1-GPIO27_ADC1)*%
X174090331Y-80005000D03*
%TO.P,llc3,3,Pin_a3*%
%TO.N,Net-(Display1-Pin_2)*%
X174090331Y-77465000D03*
%TO.P,llc3,4,Pin_a4*%
%TO.N,Net-(llc1-Pin_a4)*%
X174090331Y-74925000D03*
%TO.P,llc3,5,Pin_a5*%
%TO.N,Net-(U1-GPIO28_ADC2)*%
X174090331Y-72385000D03*
%TO.P,llc3,6,Pin_a6*%
%TO.N,unconnected-(llc3-Pin_a6-Pad6)*%
X174090331Y-69845000D03*
%TO.P,llc3,7,Pin_b6*%
%TO.N,unconnected-(llc3-Pin_b6-Pad7)*%
X163930331Y-69845000D03*
%TO.P,llc3,8,Pin_b5*%
%TO.N,Net-(llc3-Pin_b5)*%
X163930331Y-72385000D03*
%TO.P,llc3,9,Pin_b4*%
%TO.N,Net-(llc3-Pin_b4)*%
X163930331Y-74925000D03*
%TO.P,llc3,10,Pin_b3*%
%TO.N,Net-(D2-A)*%
X163930331Y-77465000D03*
%TO.P,llc3,11,Pin_b2*%
%TO.N,Net-(llc3-Pin_b2)*%
X163930331Y-80005000D03*
%TO.P,llc3,12,Pin_b1*%
%TO.N,Net-(llc3-Pin_b1)*%
X163930331Y-82545000D03*
%TD*%
D20*
%TO.P,llc4,1,Pin_a1*%
%TO.N,Net-(U1-GPIO19)*%
X174090331Y-66445000D03*
D12*
%TO.P,llc4,2,Pin_a2*%
%TO.N,Net-(U1-GPIO20)*%
X174090331Y-63905000D03*
%TO.P,llc4,3,Pin_a3*%
%TO.N,Net-(Display1-Pin_2)*%
X174090331Y-61365000D03*
%TO.P,llc4,4,Pin_a4*%
%TO.N,Net-(llc1-Pin_a4)*%
X174090331Y-58825000D03*
%TO.P,llc4,5,Pin_a5*%
%TO.N,Net-(U1-GPIO21)*%
X174090331Y-56285000D03*
%TO.P,llc4,6,Pin_a6*%
%TO.N,Net-(U1-GPIO22)*%
X174090331Y-53745000D03*
%TO.P,llc4,7,Pin_b6*%
%TO.N,Net-(llc4-Pin_b6)*%
X163930331Y-53745000D03*
%TO.P,llc4,8,Pin_b5*%
%TO.N,Net-(llc4-Pin_b5)*%
X163930331Y-56285000D03*
%TO.P,llc4,9,Pin_b4*%
%TO.N,Net-(llc3-Pin_b4)*%
X163930331Y-58825000D03*
%TO.P,llc4,10,Pin_b3*%
%TO.N,Net-(D2-A)*%
X163930331Y-61365000D03*
%TO.P,llc4,11,Pin_b2*%
%TO.N,Net-(llc4-Pin_b2)*%
X163930331Y-63905000D03*
%TO.P,llc4,12,Pin_b1*%
%TO.N,Net-(llc4-Pin_b1)*%
X163930331Y-66445000D03*
%TD*%
D22*
%TO.P,R1,1*%
%TO.N,Net-(D1-A)*%
X202600000Y-48120000D03*
%TO.P,R1,2*%
%TO.N,Net-(Display1-Pin_2)*%
X202600000Y-55740000D03*
%TD*%
D16*
%TO.P,D3,1,K*%
%TO.N,Net-(D2-K)*%
X186880000Y-54400000D03*
D17*
%TO.P,D3,2,A*%
%TO.N,Net-(D3-A)*%
X176720000Y-54400000D03*
%TD*%
D20*
%TO.P,llc6,1,Pin_a1*%
%TO.N,Net-(U1-GPIO10)*%
X174120477Y-100645000D03*
D12*
%TO.P,llc6,2,Pin_a2*%
%TO.N,Net-(U1-GPIO11)*%
X174120477Y-98105000D03*
%TO.P,llc6,3,Pin_a3*%
%TO.N,Net-(Display1-Pin_2)*%
X174120477Y-95565000D03*
%TO.P,llc6,4,Pin_a4*%
%TO.N,Net-(llc5-Pin_a4)*%
X174120477Y-93025000D03*
%TO.P,llc6,5,Pin_a5*%
%TO.N,Net-(U1-GPIO12)*%
X174120477Y-90485000D03*
%TO.P,llc6,6,Pin_a6*%
%TO.N,Net-(U1-GPIO13)*%
X174120477Y-87945000D03*
%TO.P,llc6,7,Pin_b6*%
%TO.N,Net-(llc6-Pin_b6)*%
X163960477Y-87945000D03*
%TO.P,llc6,8,Pin_b5*%
%TO.N,Net-(llc6-Pin_b5)*%
X163960477Y-90485000D03*
%TO.P,llc6,9,Pin_b4*%
%TO.N,Net-(llc3-Pin_b4)*%
X163960477Y-93025000D03*
%TO.P,llc6,10,Pin_b3*%
%TO.N,Net-(D2-A)*%
X163960477Y-95565000D03*
%TO.P,llc6,11,Pin_b2*%
%TO.N,Net-(llc6-Pin_b2)*%
X163960477Y-98105000D03*
%TO.P,llc6,12,Pin_b1*%
%TO.N,Net-(llc6-Pin_b1)*%
X163960477Y-100645000D03*
%TD*%
D23*
%TO.P,D1,1,K*%
%TO.N,Net-(D1-K)*%
X211000000Y-50660000D03*
D24*
%TO.P,D1,2,A*%
%TO.N,Net-(D1-A)*%
X208460000Y-50660000D03*
%TD*%
D25*
%TO.P,llc1,1,Pin_a1*%
%TO.N,unconnected-(llc1-Pin_a1-Pad1)*%
X164460000Y-46080000D03*
D12*
%TO.P,llc1,2,Pin_a2*%
%TO.N,Net-(U1-GPIO4)*%
X167000000Y-46080000D03*
%TO.P,llc1,3,Pin_a3*%
%TO.N,Net-(Display1-Pin_2)*%
X169540000Y-46080000D03*
%TO.P,llc1,4,Pin_a4*%
%TO.N,Net-(llc1-Pin_a4)*%
X172080000Y-46080000D03*
%TO.P,llc1,5,Pin_a5*%
%TO.N,Net-(U1-GPIO5)*%
X174620000Y-46080000D03*
%TO.P,llc1,6,Pin_a6*%
%TO.N,Net-(U1-GPIO6)*%
X177160000Y-46080000D03*
%TO.P,llc1,7,Pin_b6*%
%TO.N,Net-(llc1-Pin_b6)*%
X177160000Y-35920000D03*
%TO.P,llc1,8,Pin_b5*%
%TO.N,Net-(llc1-Pin_b5)*%
X174620000Y-35920000D03*
%TO.P,llc1,9,Pin_b4*%
%TO.N,Net-(llc1-Pin_b4)*%
X172080000Y-35920000D03*
%TO.P,llc1,10,Pin_b3*%
%TO.N,Net-(D2-K)*%
X169540000Y-35920000D03*
%TO.P,llc1,11,Pin_b2*%
%TO.N,unconnected-(llc1-Pin_b2-Pad11)*%
X167000000Y-35920000D03*
%TO.P,llc1,12,Pin_b1*%
%TO.N,unconnected-(llc1-Pin_b1-Pad12)*%
X164460000Y-35920000D03*
%TD*%
D19*
%TO.P,Debug1,1,Pin_1*%
%TO.N,Net-(Debug1-Pin_1)*%
X214200000Y-116940000D03*
D21*
%TO.P,Debug1,2,Pin_2*%
%TO.N,Net-(Debug1-Pin_2)*%
X214200000Y-114400000D03*
%TO.P,Debug1,3,Pin_3*%
%TO.N,Net-(Debug1-Pin_3)*%
X214000000Y-111860000D03*
%TD*%
D26*
%TO.N,Net-(llc4-Pin_b1)*%
X157863926Y-69316000D02*
X161059331Y-69316000D01*
X157204331Y-68656405D02*
X157863926Y-69316000D01*
X158330331Y-62650000D02*
X156661569Y-64318762D01*
X156661569Y-67338428D02*
X157204331Y-67881190D01*
X161059331Y-69316000D02*
X163930331Y-66445000D01*
X157204331Y-67881190D02*
X157204331Y-68656405D01*
X156661569Y-64318762D02*
X156661569Y-67338428D01*
%TO.N,Net-(llc3-Pin_b1)*%
X155490331Y-64035000D02*
X154364331Y-65161000D01*
X154364331Y-65161000D02*
X154364331Y-74110370D01*
X154364331Y-74110370D02*
X162798961Y-82545000D01*
X162798961Y-82545000D02*
X163930331Y-82545000D01*
%TO.N,Net-(D1-K)*%
X207800000Y-85350000D02*
X207800000Y-97200000D01*
X207800000Y-97200000D02*
X205860000Y-99140000D01*
X205860000Y-99140000D02*
X203200000Y-99140000D01*
X211150000Y-82000000D02*
X207800000Y-85350000D01*
%TO.N,Net-(D1-A)*%
X202600000Y-48120000D02*
X205920000Y-48120000D01*
X205920000Y-48120000D02*
X208460000Y-50660000D01*
%TO.N,Net-(llc4-Pin_b6)*%
X164396736Y-70971000D02*
X165651000Y-69716736D01*
X158341331Y-70971000D02*
X164396736Y-70971000D01*
X158330331Y-70960000D02*
X158341331Y-70971000D01*
X165651000Y-55465669D02*
X163930331Y-53745000D01*
X165651000Y-69716736D02*
X165651000Y-55465669D01*
%TO.N,Net-(llc3-Pin_b5)*%
X162585331Y-73730000D02*
X163930331Y-72385000D01*
X158330331Y-73730000D02*
X162585331Y-73730000D01*
%TO.N,Net-(llc3-Pin_b4)*%
X162348926Y-69834000D02*
X165056331Y-67126595D01*
X156616331Y-73608405D02*
X156616331Y-70701000D01*
X155749331Y-69834000D02*
X162348926Y-69834000D01*
X157932926Y-74925000D02*
X156616331Y-73608405D01*
X162804331Y-59951000D02*
X163930331Y-58825000D01*
X165056331Y-63150595D02*
X164396736Y-62491000D01*
X170454477Y-115619000D02*
X181641000Y-115619000D01*
X163930331Y-74925000D02*
X157932926Y-74925000D01*
X162804331Y-61831405D02*
X162804331Y-59951000D01*
X181641000Y-115619000D02*
X185420000Y-111840000D01*
X163463926Y-62491000D02*
X162804331Y-61831405D01*
X163960477Y-109125000D02*
X170454477Y-115619000D01*
X156616331Y-70701000D02*
X155490331Y-69575000D01*
X155490331Y-69575000D02*
X155749331Y-69834000D01*
X164396736Y-62491000D02*
X163463926Y-62491000D01*
X165056331Y-67126595D02*
X165056331Y-63150595D01*
%TO.N,Net-(llc4-Pin_b5)*%
X159456331Y-63776000D02*
X159456331Y-60759000D01*
X157204331Y-64953595D02*
X158381926Y-63776000D01*
X158330331Y-68190000D02*
X157204331Y-67064000D01*
X158381926Y-63776000D02*
X159456331Y-63776000D01*
X159456331Y-60759000D02*
X163930331Y-56285000D01*
X157204331Y-67064000D02*
X157204331Y-64953595D01*
%TO.N,Net-(D2-K)*%
X181200000Y-33200000D02*
X186880000Y-38880000D01*
X169540000Y-34060000D02*
X170400000Y-33200000D01*
X186880000Y-38880000D02*
X186880000Y-54400000D01*
X189940000Y-112400000D02*
X201408000Y-112400000D01*
X207028771Y-61000000D02*
X186880000Y-61000000D01*
X185420000Y-116920000D02*
X189940000Y-112400000D01*
X201408000Y-112400000D02*
X202024000Y-113016000D01*
X169540000Y-35920000D02*
X169540000Y-34060000D01*
X204376000Y-113016000D02*
X213679000Y-103713000D01*
X170400000Y-33200000D02*
X181200000Y-33200000D01*
X213679000Y-103713000D02*
X213679000Y-67650229D01*
X213679000Y-67650229D02*
X207028771Y-61000000D01*
X202024000Y-113016000D02*
X204376000Y-113016000D01*
%TO.N,Net-(llc4-Pin_b2)*%
X162415331Y-65420000D02*
X163930331Y-63905000D01*
X158330331Y-65420000D02*
X162415331Y-65420000D01*
%TO.N,Net-(llc3-Pin_b2)*%
X155490331Y-73476370D02*
X162018961Y-80005000D01*
X155490331Y-72345000D02*
X155490331Y-73476370D01*
X162018961Y-80005000D02*
X163930331Y-80005000D01*
%TO.N,Net-(llc5-Pin_b2)*%
X155575662Y-107631370D02*
X162149292Y-114205000D01*
X162149292Y-114205000D02*
X164090331Y-114205000D01*
X155575662Y-106500000D02*
X155575662Y-107631370D01*
%TO.N,Net-(U1-GPIO10)*%
X174250331Y-100645000D02*
X184739331Y-90156000D01*
X184739331Y-90156000D02*
X196944000Y-90156000D01*
X174120477Y-100645000D02*
X174250331Y-100645000D01*
X196944000Y-90156000D02*
X203200000Y-83900000D01*
%TO.N,Net-(Display1-Pin_6)*%
X213228000Y-77024884D02*
X203687116Y-67484000D01*
X211823926Y-101407000D02*
X213228000Y-100002926D01*
X210476074Y-101407000D02*
X211823926Y-101407000D01*
X209523000Y-100453926D02*
X210476074Y-101407000D01*
X213228000Y-100002926D02*
X213228000Y-77024884D01*
X203687116Y-67484000D02*
X186596000Y-67484000D01*
X186596000Y-67484000D02*
X185420000Y-68660000D01*
X211150000Y-94700000D02*
X209523000Y-96327000D01*
X209523000Y-96327000D02*
X209523000Y-100453926D01*
%TO.N,Net-(Display1-Pin_7)*%
X196203116Y-71200000D02*
X185420000Y-71200000D01*
X211637116Y-100956000D02*
X212777000Y-99816116D01*
X212777000Y-79113884D02*
X203687116Y-70024000D01*
X210662884Y-100956000D02*
X211637116Y-100956000D01*
X203687116Y-70024000D02*
X197379116Y-70024000D01*
X197379116Y-70024000D02*
X196203116Y-71200000D01*
X211150000Y-97240000D02*
X209974000Y-98416000D01*
X209974000Y-100267116D02*
X210662884Y-100956000D01*
X209974000Y-98416000D02*
X209974000Y-100267116D01*
X212777000Y-99816116D02*
X212777000Y-79113884D01*
%TO.N,Net-(Display1-Pin_8)*%
X211150000Y-99780000D02*
X212326000Y-98604000D01*
X212326000Y-79926000D02*
X204964000Y-72564000D01*
X212326000Y-98604000D02*
X212326000Y-79926000D01*
X204964000Y-72564000D02*
X189136000Y-72564000D01*
X189136000Y-72564000D02*
X185420000Y-76280000D01*
%TO.N,Net-(U1-RUN)*%
X153998662Y-108375590D02*
X153998662Y-96314410D01*
X202712884Y-115556000D02*
X200172884Y-118096000D01*
X206150000Y-39800000D02*
X214200000Y-47850000D01*
X214200000Y-105043116D02*
X203687116Y-115556000D01*
X175169000Y-101771000D02*
X185420000Y-91520000D01*
X163494072Y-86819000D02*
X164426882Y-86819000D01*
X214200000Y-47850000D02*
X214200000Y-105043116D01*
X200172884Y-118096000D02*
X163719072Y-118096000D01*
X203687116Y-115556000D02*
X202712884Y-115556000D01*
X163719072Y-118096000D02*
X153998662Y-108375590D01*
X172994477Y-101440514D02*
X173324963Y-101771000D01*
X153998662Y-96314410D02*
X163494072Y-86819000D01*
X173324963Y-101771000D02*
X175169000Y-101771000D01*
X172994477Y-95386595D02*
X172994477Y-101440514D01*
X164426882Y-86819000D02*
X172994477Y-95386595D01*
%TO.N,Net-(U1-GPIO11)*%
X174250331Y-98105000D02*
X184739331Y-87616000D01*
X174120477Y-98105000D02*
X174250331Y-98105000D01*
X184739331Y-87616000D02*
X196944000Y-87616000D01*
X196944000Y-87616000D02*
X203200000Y-81360000D01*
%TO.N,Net-(U1-GPIO2)*%
X202024000Y-110476000D02*
X203200000Y-109300000D01*
X178612810Y-114205000D02*
X182341810Y-110476000D01*
X174250331Y-114205000D02*
X178612810Y-114205000D01*
X182341810Y-110476000D02*
X202024000Y-110476000D01*
%TO.N,Net-(U1-GPIO3)*%
X174120477Y-106585000D02*
X174250331Y-106585000D01*
X175251331Y-105584000D02*
X202024000Y-105584000D01*
X202024000Y-105584000D02*
X203200000Y-106760000D01*
X174250331Y-106585000D02*
X175251331Y-105584000D01*
%TO.N,Net-(U1-GPIO12)*%
X184739331Y-79996000D02*
X202024000Y-79996000D01*
X202024000Y-79996000D02*
X203200000Y-78820000D01*
X174250331Y-90485000D02*
X184739331Y-79996000D01*
X174120477Y-90485000D02*
X174250331Y-90485000D01*
%TO.N,Net-(U1-GPIO13)*%
X174120477Y-87945000D02*
X174250331Y-87945000D01*
X184551331Y-77644000D02*
X201836000Y-77644000D01*
X201836000Y-77644000D02*
X203200000Y-76280000D01*
X174250331Y-87945000D02*
X184551331Y-77644000D01*
%TO.N,Net-(Display1-Pin_2)*%
X174556736Y-54871000D02*
X173623926Y-54871000D01*
X172964331Y-62491000D02*
X174090331Y-61365000D01*
X180162669Y-59574000D02*
X177310669Y-62426000D01*
X174250331Y-95565000D02*
X172600000Y-93914669D01*
X174090331Y-61365000D02*
X175151331Y-62426000D01*
X175151331Y-62426000D02*
X177310669Y-62426000D01*
X169540000Y-50787074D02*
X169540000Y-46080000D01*
X172600000Y-93914669D02*
X172600000Y-78955331D01*
X177310669Y-62426000D02*
X178146000Y-61590669D01*
X174250331Y-95590331D02*
X174250331Y-95565000D01*
X173623926Y-54871000D02*
X169540000Y-50787074D01*
X202600000Y-55740000D02*
X198766000Y-59574000D01*
X178146000Y-61590669D02*
X178146000Y-58460264D01*
X198766000Y-59574000D02*
X180162669Y-59574000D01*
X180515000Y-111665000D02*
X185420000Y-106760000D01*
X174250331Y-111665000D02*
X180515000Y-111665000D01*
X178146000Y-58460264D02*
X174556736Y-54871000D01*
X172964331Y-76339000D02*
X172964331Y-62491000D01*
X174090331Y-77465000D02*
X172964331Y-76339000D01*
X172600000Y-78955331D02*
X174090331Y-77465000D01*
%TO.N,Net-(llc6-Pin_b6)*%
X165667331Y-89522000D02*
X164090331Y-87945000D01*
X158415662Y-105115000D02*
X158471662Y-105171000D01*
X158471662Y-105171000D02*
X164556736Y-105171000D01*
X164556736Y-105171000D02*
X165667331Y-104060405D01*
X164090331Y-87945000D02*
X163960477Y-87945000D01*
X165667331Y-104060405D02*
X165667331Y-89522000D01*
%TO.N,Net-(D2-A)*%
X163960477Y-95565000D02*
X161076477Y-98449000D01*
X157949257Y-98449000D02*
X155575662Y-100822595D01*
X162804331Y-54211405D02*
X162804331Y-53278595D01*
X163463926Y-52619000D02*
X166291926Y-52619000D01*
X161076477Y-98449000D02*
X157949257Y-98449000D01*
X155575662Y-100822595D02*
X155575662Y-100960000D01*
X175959000Y-60239000D02*
X176720000Y-61000000D01*
X163463926Y-54871000D02*
X162804331Y-54211405D01*
X165061701Y-60233630D02*
X165061701Y-55535965D01*
X160603257Y-111665000D02*
X163960477Y-111665000D01*
X165061701Y-55535965D02*
X164396736Y-54871000D01*
X173911926Y-60239000D02*
X175959000Y-60239000D01*
X155575662Y-100960000D02*
X156701662Y-102086000D01*
X164396736Y-54871000D02*
X163463926Y-54871000D01*
X156701662Y-102086000D02*
X156701662Y-107763405D01*
X156701662Y-107763405D02*
X160603257Y-111665000D01*
X162804331Y-53278595D02*
X163463926Y-52619000D01*
X166291926Y-52619000D02*
X173911926Y-60239000D01*
X163930331Y-61365000D02*
X165061701Y-60233630D01*
%TO.N,Net-(llc6-Pin_b2)*%
X162490477Y-99575000D02*
X163960477Y-98105000D01*
X158415662Y-99575000D02*
X162490477Y-99575000D01*
X163960477Y-98105000D02*
X164090331Y-98105000D01*
%TO.N,Net-(llc6-Pin_b5)*%
X163184287Y-99519000D02*
X160358287Y-102345000D01*
X163960477Y-90485000D02*
X165091847Y-91616370D01*
X160358287Y-102345000D02*
X158415662Y-102345000D01*
X165091847Y-98854035D02*
X164426882Y-99519000D01*
X164426882Y-99519000D02*
X163184287Y-99519000D01*
X165091847Y-91616370D02*
X165091847Y-98854035D01*
%TO.N,Net-(llc5-Pin_b5)*%
X162790331Y-107885000D02*
X163960477Y-106714854D01*
X163960477Y-106714854D02*
X163960477Y-106585000D01*
X158415662Y-107885000D02*
X162790331Y-107885000D01*
%TO.N,Net-(llc5-Pin_b1)*%
X154449662Y-107234185D02*
X163960477Y-116745000D01*
X163960477Y-116745000D02*
X164090331Y-116745000D01*
X155575662Y-98190000D02*
X154449662Y-99316000D01*
X154449662Y-99316000D02*
X154449662Y-107234185D01*
%TO.N,Net-(llc5-Pin_a4)*%
X204376000Y-79307116D02*
X204376000Y-74916000D01*
X174120477Y-93025000D02*
X174250331Y-93025000D01*
X204376000Y-74916000D02*
X203200000Y-73740000D01*
X203687116Y-79996000D02*
X204376000Y-79307116D01*
X197632884Y-85076000D02*
X202712884Y-79996000D01*
X202712884Y-79996000D02*
X203687116Y-79996000D01*
X174250331Y-93025000D02*
X182199331Y-85076000D01*
X182199331Y-85076000D02*
X197632884Y-85076000D01*
%TO.N,Net-(D3-A)*%
X172834405Y-44954000D02*
X173494000Y-45613595D01*
X173494000Y-51174000D02*
X176720000Y-54400000D01*
X165449280Y-44954000D02*
X172834405Y-44954000D01*
X173494000Y-45613595D02*
X173494000Y-51174000D01*
X156499100Y-36003820D02*
X165449280Y-44954000D01*
%TD*%
M02*
